<?xml version="1.0" encoding="utf-8"?>
<!-- Generator: Adobe Illustrator 23.0.1, SVG Export Plug-In . SVG Version: 6.00 Build 0)  -->
<svg version="1.1" id="图层_1" xmlns="http://www.w3.org/2000/svg" xmlns:xlink="http://www.w3.org/1999/xlink" x="0px" y="0px"
	 viewBox="0 0 80 80" style="enable-background:new 0 0 80 80;" xml:space="preserve">
<style type="text/css">
	.st0{fill:#FFFFFF;}
</style>
<path class="st0" d="M26.9,0.7h9v33.7c0,1.5-1,2.4-3.5,2.4s-3.5-0.8-3.5-2.4V7.1h-0.2l-6.8,6.5v0.8c0,1.4-0.8,2.9-3.5,2.9
	c-2.6,0-3.5-1.3-3.5-2.9v-0.8L7.9,7.1H7.7v27.3c0,1.5-1,2.4-3.5,2.4s-3.5-0.9-3.5-2.5V0.7h9l8.7,8.2L26.9,0.7z"/>
<path class="st0" d="M55.7,36.8c-3.5,0-6.4-0.6-8.9-2.4c-2.4-1.8-2.8-3.3-2.8-5.5V3c0.1-1.6,1.1-2.4,3.6-2.4c2.6,0,3.5,0.8,3.5,2.4
	v25.9c0,2.6,1.3,3.2,4.3,3.2h12.1c3.2,0,4.3-0.7,4.3-3.2V3c0.2-1.6,1.2-2.4,3.7-2.4s3.5,0.8,3.5,2.4v25.9c0,2.2-0.3,3.8-2.8,5.5
	c-2.5,1.8-5.3,2.4-8.9,2.4H55.7z"/>
<path class="st0" d="M14.2,61.2L1.5,47.1c-0.5-0.5-0.8-1-0.8-1.7c0-1.3,1.8-2.2,3.4-2.2c2.4,0,3.1,1.2,4.1,2.4l10,11l10-11
	c1-1.1,1.8-2.4,4.1-2.4c1.8,0,3.4,1,3.4,2.2c0,0.7-0.3,1.2-0.8,1.7L22.3,61.2l12.6,14.2c0.5,0.5,0.8,1,0.8,1.7
	c0,1.3-1.8,2.2-3.4,2.2c-2.4,0-3.1-1.2-4.1-2.4L18.3,66L8.3,77c-1,1.1-1.8,2.4-4.1,2.4c-1.8,0-3.4-1-3.4-2.2c0-0.7,0.3-1.2,0.8-1.7
	L14.2,61.2z"/>
<path class="st0" d="M51.2,47.9h-2.7c-2.4,0-4.3-0.6-4.3-2.4c0-1.7,1.9-2.4,4.1-2.4h11.9c5.5,0,8.4,1.5,10.7,4.6l6.3,8.2
	c1.4,1.9,2.2,3.2,2.2,5.4c0,1.8-0.8,3.4-2.1,5.1L71,74.9c-2.5,3.3-5.7,4.3-11.2,4.3H48c-1.8,0-3.5-0.7-3.5-2.4
	c0-1.7,1.8-2.4,3.5-2.4h3.3C51.2,74.7,51.2,47.9,51.2,47.9z M58.3,74.6h1.3c3,0,3.7-0.3,4.9-2l6.3-8.3c0.8-1.1,1.3-1.8,1.3-3
	c0-1.6-0.8-2.5-1.8-3.8l-5.9-7.9c-1.5-2-2.2-2-5.4-2h-0.8L58.3,74.6L58.3,74.6z"/>
</svg>
