<?xml version="1.0" encoding="utf-8"?>
<!-- Generator: Adobe Illustrator 23.0.1, SVG Export Plug-In . SVG Version: 6.00 Build 0)  -->
<svg version="1.1" id="图层_1" xmlns="http://www.w3.org/2000/svg" xmlns:xlink="http://www.w3.org/1999/xlink" x="0px" y="0px"
	 viewBox="0 0 756.8 170.1" style="enable-background:new 0 0 756.8 170.1;" xml:space="preserve">
<style type="text/css">
	.st0{fill-rule:evenodd;clip-rule:evenodd;fill:#FFFFFF;}
</style>
<path class="st0" d="M443.7,27.9l17.8,41l17.5-41h9.9v51.8h-8.5V43.9l-15.1,35.8h-7.4l-15.3-35.5v35.5h-8.8V27.9H443.7z"/>
<path class="st0" d="M522,28.1v33.3c0,0-0.4,19.3,21.1,19.1c0,0,20.9,1.9,21.6-18.9V28.1h-8.6v33.5c0,0,0.5,12.2-12.8,11.5
	c0,0-12.8,1.4-12.8-11.7V28.1H522z"/>
<path class="st0" d="M594.3,27.9l17.3,25l-18.2,26.5l10.4,0.2l13-20l13.3,20h10.3l-18.5-26.5l17.5-25.2h-10.6l-12.2,18.2l-11.9-18.2
	L594.3,27.9L594.3,27.9z"/>
<path class="st0" d="M689,27.9h-20.3v51.7h20.7c0,0,23.3,0.9,23.4-25.4C712.8,54.2,715.1,28.8,689,27.9z M687.8,72.2h-10.6V35.3H689
	c17.3,0.8,15.3,18.2,15.3,18.2C704.9,73.9,687.8,72.2,687.8,72.2z"/>
<path class="st0" d="M245.1,46v7.4h22c0,0-6.4,12.6-24.3,21.8l4.5,7c0,0,15.9-8.8,25.4-27.5l-0.2,32.4h7.9V54.8
	c0,0,6.3,14.5,24.5,27.2l5.4-6.8c0,0-18.2-9.8-24.5-21.8h22.3V46h-27.7V20.1h-7.9V46H245.1L245.1,46z"/>
<path class="st0" d="M257.9,25.5c0,0,5.5,8,8.3,14.8l-6.8,3.2c0,0-5.5-12.1-8.8-15.5L257.9,25.5z"/>
<path class="st0" d="M295.5,24.2c0,0-2.9,8.2-9.5,16.4l7,3.6c0,0,6.8-9.3,9.7-16.4L295.5,24.2z"/>
<path class="st0" d="M342.7,26.2c0,0,8.3,6,11.7,10.6l5.2-5.2c0,0-6.7-7.1-11.7-10.6L342.7,26.2z"/>
<path class="st0" d="M338.2,41.5v7.4h9.2v25.9c0,0-0.1,2.2-1.8,3.4l2.9,6.8c0,0,8.8-5.2,15.3-11.7c0,0-1.7-5.8-2.3-7.9l-6.5,6.1v-30
	H338.2z"/>
<path class="st0" d="M371.5,44c5-4.7,5-11.9,5-11.9v-2.5h11v10.6c0.5,7,7.4,6.5,7.4,6.5h9v-7h-6.8c-2-0.2-2-1.6-2-1.6V22.4h-26.3V33
	c-0.2,7.3-9,9.9-9,9.9l5,6.1C368.5,47.3,371.5,44,371.5,44z"/>
<path class="st0" d="M389.3,73.5c0,0,6.1-5.2,10.1-16.2v-7h-35.3v7.4h4c0,0,2.9,8.9,9.7,15.1c0,0-6.3,4.7-19.1,8.1l4.3,6.5
	c0,0,10.2-2.4,20.9-9.4c0,0,5.5,4.7,17.8,9.4l4-6.5C405.7,80.9,398.2,78.3,389.3,73.5z M383.2,68.7c-5.5-4.6-7.9-11-7.9-11h16.2
	C388.4,64.3,383.2,68.7,383.2,68.7z"/>
<path class="st0" d="M317,104.9c4.5,4.7,9.7,8.3,15.5,11l-1.7,3.1c-1.9-0.9-3.5-1.8-5-2.8v3.2h-8.3v5.4h10.1v3.3h-10.1v5.7h13.4v3.4
	h-30.2v-3.4h13.4v-5.7h-10.2v-3.3H314v-5.4h-8.3v-3.2c-1.5,0.9-3.3,1.9-5.2,2.8l-1.7-3c6.3-3,11.5-6.7,15.7-11.1
	C314.5,104.9,317,104.9,317,104.9z M325.8,116.1c-3.7-2.3-7.1-5-10-8.1c-2.7,2.9-6,5.7-10,8.1H325.8z"/>
<path class="st0" d="M377.6,107.4c2.1,2.8,3.7,5.2,4.9,7.4l-2.8,2c-0.4-0.8-0.8-1.6-1.2-2.2c-3.7,0.6-8.2,1-13.5,1.3l-0.9-2.8
	c0.6-0.2,1.1-0.5,1.5-0.9c2.2-2.5,3.9-4.9,5-7.3l3.3,1c-1.5,2.9-3.2,5.3-5.1,7.1c2.2-0.1,4.9-0.4,8.2-0.8c-0.5-0.8-1.2-1.9-2-3.1
	L377.6,107.4z M369.5,131.5v6.7h-3.3v-20.7h14.1v16.7c0,2.5-1.2,3.7-3.5,3.7H374l-0.8-3.2l2.6,0.1c0.9,0,1.3-0.5,1.3-1.4v-2
	L369.5,131.5L369.5,131.5z M377,123.2v-2.8h-7.5v2.8H377z M369.5,126v2.6h7.5V126H369.5z M386.6,120.8c-2.5,0-3.8-1.4-3.8-4.1V105
	h3.4v4.3c3.9-0.6,7-1.2,9.1-1.8l1.1,3c-3.1,0.7-6.5,1.4-10.2,1.9v3.5c0,1.2,0.4,1.8,1.3,1.8h4.3c0.6,0,1-0.2,1.2-0.5
	c0.3-0.5,0.5-1.7,0.6-3.6l3.2,1c-0.3,3-0.8,4.8-1.4,5.4c-0.7,0.6-1.6,0.8-2.9,0.8L386.6,120.8L386.6,120.8z M386.3,133.5
	c0,0.7,0.4,1,1.3,1h4.3c0.5,0,1-0.2,1.2-0.5c0.3-0.5,0.5-1.7,0.6-3.7l3.1,1c-0.3,3-0.8,4.8-1.4,5.4c-0.6,0.6-1.6,0.8-2.9,0.8h-5.9
	c-2.5,0-3.7-1.1-3.7-3.4V122h3.4v4c3.3-0.3,6.3-0.9,9.1-1.8l1.1,3.1c-3,0.8-6.4,1.4-10.2,1.8V133.5L386.3,133.5z"/>
<path class="st0" d="M428.9,115.7h8.1v15.2c1-0.8,2.2-1.9,3.6-3.2l0.9,3.6c-2.4,2.2-4.9,4.1-7.5,5.8l-1.3-3.1
	c0.6-0.5,0.9-1.2,0.9-1.9V119h-4.8L428.9,115.7L428.9,115.7z M433.4,105.4c2.3,1.8,4.3,3.5,5.9,5.3l-2.3,2.4
	c-1.4-1.7-3.4-3.5-5.9-5.4L433.4,105.4z M441.7,120h17.5v3.1c-1,3.2-2.8,5.9-5.2,8.2c2.4,1.5,5.1,2.9,8.4,4l-1.8,2.9
	c-3.5-1.4-6.5-3-9-4.9c-2.8,2-6.3,3.6-10.4,4.9l-1.9-2.9c3.8-1.1,7-2.5,9.6-4.3c-2.5-2.4-4.1-5-5-7.9h-2V120H441.7z M444.2,106.1
	H457v7.6c0,0.8,0.4,1.2,1.3,1.2h3.2v3.1h-4.1c-2.5,0-3.8-1.2-3.8-3.6v-5.1h-6v1.1c0,3.7-1.9,6.7-5.7,8.7l-2.3-2.6
	c3-1.4,4.6-3.3,4.6-5.7V106.1L444.2,106.1z M447,123.3c0.8,2.2,2.2,4.2,4.3,6c2-1.8,3.5-3.8,4.5-6C455.7,123.3,447,123.3,447,123.3z
	"/>
<path class="st0" d="M493.7,115.6h8.3V131c1-0.8,2.2-1.9,3.6-3.2l0.9,3.5c-2.3,2.2-4.8,4.1-7.4,5.8l-1.3-3.1
	c0.6-0.5,0.9-1.1,0.9-1.8v-13.3h-5V115.6z M498.4,105.2c2.4,1.8,4.4,3.6,5.9,5.3l-2.3,2.4c-1.5-1.8-3.5-3.5-6-5.4L498.4,105.2z
	 M505,115.4h9.4v-10.6h3.5v10.6h8.9v3.4h-8.9v19.4h-3.5v-19.4H505V115.4L505,115.4z"/>
<path class="st0" d="M558.5,124.6h21.7v-1.8h3.5v1.8h7.8v3.3h-7.8v7c0,2.3-1.2,3.4-3.7,3.4h-4.5l-0.8-3.4c1.4,0.1,2.8,0.2,4.1,0.2
	c1,0,1.4-0.4,1.4-1.1v-6.1h-21.7V124.6z M586.1,106.1v9.1h-20.6v1.8c0,1,0.5,1.5,1.5,1.5h19c0.6,0,1-0.2,1.2-0.6
	c0.2-0.3,0.4-1.2,0.5-2.6l3.2,1c-0.2,1.6-0.4,2.7-0.7,3.5c-0.5,1.1-1.5,1.7-3.1,1.8h-21.2c-2.5,0-3.7-1.1-3.7-3.3V106L586.1,106.1
	L586.1,106.1z M567.5,128.3c2.3,1.8,4.3,3.7,5.9,5.5l-2.6,2.6c-1.4-1.8-3.3-3.7-5.8-5.7L567.5,128.3z M565.6,112.1h17.1v-2.9h-17.1
	V112.1z"/>
<path class="st0" d="M623.3,120.3h2.2v-11.9h4.1c0.4-1.2,0.8-2.5,1-3.7l3.6,0.5c-0.2,1.1-0.6,2.2-1,3.2h4.5v26.1
	c0,2.3-1.1,3.4-3.2,3.4h-3l-0.9-3.2c1.2,0.1,2.1,0.2,2.9,0.2c0.7,0,1-0.5,1-1.5v-9.9h-6c-0.2,6-1.1,10.9-2.9,14.7l-2.7-2.4
	c1.5-3.3,2.3-7.4,2.5-12.3h-2.2L623.3,120.3L623.3,120.3z M634.6,120.3v-8.8h-6v8.8H634.6z M631.7,125c0.8,1.9,1.6,4.1,2.3,6.7
	l-2.7,0.7c-0.5-2.2-1.3-4.3-2.2-6.5L631.7,125z M631.5,112.9c0.9,1.5,1.7,3.3,2.4,5.4l-2.5,0.7c-0.7-1.9-1.4-3.7-2.3-5.2
	L631.5,112.9z M637.6,135.9c1.3-1.7,2.3-3.4,2.8-5.1c0.5-1.7,0.7-4,0.7-7V116h10.5v18.1c0,0.4,0.2,0.6,0.5,0.6h0.7
	c0.1,0,0.2-0.1,0.4-0.1c0.1-0.1,0.2-0.2,0.3-0.4c0.1-0.5,0.1-2,0.1-4.6l3.1,1c0,1.9-0.1,3.4-0.3,4.6c-0.1,1-0.4,1.7-0.9,2.1
	c-0.5,0.3-1.3,0.5-2.4,0.5H652c-2.4,0-3.6-1.1-3.6-3.2v-15.3h-4.1v4.8c0,3.1-0.3,5.8-0.9,8c-0.6,2.2-1.7,4.4-3.2,6.4L637.6,135.9z
	 M638.8,109.3h6.4c-0.4-1.3-1-2.6-1.7-4l3.6-0.6c0.6,1.6,1.2,3.1,1.6,4.6h6.6v3.3h-16.5L638.8,109.3L638.8,109.3z"/>
<path class="st0" d="M256.7,118.9c-1.1,0-4.1-0.4-5.9-2c-2.4-2-3.8-3.8-3.8-8.2c0-3,2.4-5.3,5.1-5.3s5.5,1.9,6.5,4
	c-3.1,0-5,1.4-5,5.3c0,2.5,1.6,4.2,3.1,4.2c0-1.1,0.6-2.3,1.8-2.3c-0.4,0.8-0.7,1.5-0.7,2.3c1.3,0,2.5-0.5,3.4-1.4
	c-0.9-0.2-1.7-0.6-1.7-1.5c0-1,1-2,2.1-2s2,0.8,2,2c0,2.1-2.4,4.4-5.8,4.6v1.1c1.2,0,2.1-0.1,2.8-0.4c0.5-0.2,1-0.4,1.5-0.4
	c0.7,0,3,1.1,4.7,1.9c-1.7,0.8-4,1.9-4.7,1.9c-0.5,0-0.9-0.2-1.5-0.4c-0.7-0.3-1.6-0.4-2.8-0.4v1.1c3.4,0.2,5.8,2.5,5.8,4.6
	c0,1.3-0.9,2-2,2s-2.1-1-2.1-2c0-0.8,0.8-1.3,1.7-1.5c-0.9-0.9-2.1-1.4-3.4-1.4c0,0.8,0.3,1.5,0.7,2.3c-1.2,0-1.8-1.2-1.8-2.3
	c-1.6,0-3.1,1.8-3.1,4.2c0,3.9,1.9,5.3,5,5.3c-1.1,2.1-3.9,4-6.5,4s-5.1-2.4-5.1-5.3c0-4.4,1.5-6.2,3.8-8.2c1.8-1.6,4.8-2,5.9-2
	v-0.8c-2.7,0-5.4,1.4-7.7,2.8c-1.1,0.6-2.4,1.4-3.6,1.4c-1.4,0-3-0.8-4.6-1.8c-2-1.3-4.1-2.4-6.2-3.4c2.1-1,4.2-2.2,6.2-3.4
	c1.7-1.1,3.2-1.8,4.6-1.8c1.2,0,2.5,0.8,3.6,1.4c2.3,1.4,5,2.8,7.7,2.8L256.7,118.9L256.7,118.9z"/>
<path class="st0" d="M698.8,119.7c2.7,0,5.4-1.4,7.7-2.8c1.1-0.6,2.4-1.4,3.6-1.4c1.4,0,3,0.8,4.7,1.8c2,1.3,4,2.4,6.2,3.4
	c-2.1,1-4.2,2.2-6.2,3.4c-1.7,1.1-3.2,1.8-4.7,1.8c-1.2,0-2.5-0.8-3.6-1.4c-2.3-1.4-5-2.8-7.7-2.8v0.8c1.1,0,4.1,0.4,5.9,2
	c2.3,2,3.8,3.8,3.8,8.2c0,3-2.4,5.3-5.1,5.3s-5.5-1.9-6.5-4c3.1,0,5-1.4,5-5.3c0-2.5-1.5-4.2-3.2-4.2c0,1.1-0.6,2.3-1.8,2.3
	c0.4-0.8,0.7-1.5,0.7-2.3c-1.3,0-2.5,0.5-3.4,1.4c0.9,0.2,1.7,0.6,1.7,1.5c0,1-1,2-2.1,2s-2-0.8-2-2c0-2.1,2.4-4.4,5.8-4.6v-1.1
	c-1.2,0-2.1,0.1-2.8,0.4c-0.5,0.2-1,0.4-1.5,0.4c-0.7,0-3-1.1-4.7-1.9c1.7-0.9,4-1.9,4.7-1.9c0.5,0,0.9,0.2,1.5,0.4
	c0.7,0.3,1.7,0.4,2.8,0.4v-1.1c-3.4-0.2-5.8-2.5-5.8-4.6c0-1.3,0.9-2,2-2s2.1,1,2.1,2c0,0.8-0.8,1.3-1.7,1.5
	c0.9,0.9,2.1,1.4,3.4,1.4c0-0.8-0.3-1.5-0.7-2.3c1.2,0,1.8,1.2,1.8,2.3c1.6,0,3.2-1.8,3.2-4.2c0-3.9-1.9-5.3-5-5.3
	c1.1-2.1,3.9-4,6.5-4s5.1,2.3,5.1,5.3c0,4.4-1.5,6.2-3.8,8.2c-1.8,1.6-4.8,2-5.9,2V119.7z"/>
<g>
	<path class="st0" d="M79.5,19.9h14.8v55.9c0,2.5-1.6,3.8-5.9,3.8s-5.9-1.4-5.9-3.8V30.4h-0.3L71,41.2v1.2c0,2.3-1.4,4.6-5.9,4.6
		c-4.2,0-5.9-2.2-5.9-4.6v-1.2L48,30.4h-0.3v45.3c0,2.5-1.6,3.8-5.9,3.8S36,78.2,36,75.7V19.9h14.8l14.4,13.5L79.5,19.9z"/>
	<path class="st0" d="M127.2,79.7c-5.9,0-10.5-1-14.6-4c-3.8-2.9-4.5-5.6-4.5-9.2V23.7c0.1-2.5,1.8-3.8,6-3.8s5.9,1.4,5.9,3.8v42.8
		c0,4.2,2.1,5.3,7.2,5.3h20c5.3,0,7.2-1.1,7.2-5.3V23.7c0.1-2.5,1.8-3.8,6-3.8s5.9,1.4,5.9,3.8v42.8c0,3.6-0.5,6.3-4.5,9.2
		c-4.1,3-8.8,4-14.6,4H127.2z"/>
	<path class="st0" d="M58.4,120.3L37.5,96.7c-0.8-0.8-1.4-1.6-1.4-2.7c0-2.1,2.9-3.6,5.7-3.6c3.8,0,5.2,1.9,6.8,3.8l16.5,18.3l16.5-18.3
		c1.6-1.8,3-3.8,6.8-3.8c3,0,5.7,1.6,5.7,3.6c0,1.1-0.5,1.9-1.4,2.7l-21.2,23.5l20.9,23.5c0.8,0.8,1.4,1.6,1.4,2.7
		c0,2.1-2.9,3.6-5.7,3.6c-3.8,0-5.2-1.9-6.8-3.8l-16.4-18.2l-16.4,18.3c-1.6,1.8-3,3.8-6.8,3.8c-3,0-5.7-1.6-5.7-3.6
		c0-1.1,0.5-1.9,1.4-2.7L58.4,120.3z"/>
	<path class="st0" d="M119.7,98.1h-4.4c-3.8,0-7.2-1-7.2-3.8c0-2.7,3.1-3.8,6.8-3.8h19.7c9.2,0,13.8,2.5,17.8,7.7l10.4,13.5
		c2.3,3.1,3.6,5.3,3.6,8.9c0,3-1.2,5.7-3.4,8.5L152.2,143c-4.1,5.5-9.4,7.2-18.6,7.2h-19.6c-3,0-5.9-1.1-5.9-3.8s2.9-3.8,5.9-3.8
		h5.6C119.7,142.5,119.7,98.1,119.7,98.1z M131.4,142.4h2.2c4.9,0,6.2-0.4,8.2-3.3l10.4-13.7c1.2-1.8,2.2-3,2.2-4.9
		c0-2.6-1.4-4.1-3-6.3l-9.8-13c-2.5-3.3-3.6-3.3-8.9-3.3h-1.4v44.4H131.4z"/>
</g>
</svg>
